<svg xmlns="http://www.w3.org/2000/svg" version="1.1" xmlns:xlink="http://www.w3.org/1999/xlink" width="1000" height="1000"><g clip-path="url(#SvgjsClipPath1148)"><rect width="1000" height="1000" fill="#edebe7"></rect><g transform="matrix(0.5833333333333334,0,0,0.5833333333333334,150,150)"><svg xmlns="http://www.w3.org/2000/svg" version="1.1" xmlns:xlink="http://www.w3.org/1999/xlink" width="1200" height="1200"><svg id="Livello_1" data-name="Livello 1" xmlns="http://www.w3.org/2000/svg" xmlns:xlink="http://www.w3.org/1999/xlink" viewBox="0 0 1200 1200">
  <defs>
    <style>
      .cls-1 {
        fill: #6599cc;
      }

      .cls-2 {
        fill: #738580;
      }

      .cls-3 {
        fill: none;
      }

      .cls-4 {
        clip-path: url(#clippath);
      }
    </style>
    <clipPath id="clippath">
      <path class="cls-3" d="M3,420.82v705.88h903.98V420.82H3ZM810.9,665.62l-13.98-38.42,40.29-14.66,13.98,38.42-40.29,14.66Z"></path>
    </clipPath>
  <clipPath id="SvgjsClipPath1148"><rect width="1000" height="1000" x="0" y="0" rx="500" ry="500"></rect></clipPath></defs>
  <path class="cls-1" d="M200.07,1124.7c-11.78,0-23.52-2.58-34.52-7.71-19.78-9.22-34.8-25.61-42.26-46.15L9.93,759.4c-15.41-42.36,6.51-89.38,48.87-104.8l623.1-226.78c20.5-7.49,42.72-6.53,62.53,2.73,19.78,9.22,34.8,25.61,42.26,46.15l113.36,311.45c15.41,42.36-6.51,89.38-48.87,104.8h0l-623.1,226.79c-9.12,3.31-18.59,4.97-28.01,4.97ZM709.89,463.74c-4.71,0-9.44.83-14.01,2.49L72.78,693.01c-21.18,7.72-32.14,31.23-24.44,52.42l113.36,311.45c3.73,10.26,11.24,18.46,21.14,23.07,9.88,4.62,20.98,5.1,31.26,1.37l623.1-226.79c21.18-7.72,32.14-31.22,24.44-52.41l-113.36-311.45c-3.73-10.26-11.24-18.46-21.14-23.07-5.49-2.57-11.36-3.85-17.25-3.85Z"></path>
  <path class="cls-2" d="M490.09,777.16c-11.78,0-23.52-2.58-34.52-7.71-19.78-9.22-34.8-25.61-42.26-46.15l-113.36-311.45c-7.47-20.52-6.51-42.72,2.74-62.52,9.22-19.79,25.61-34.81,46.14-42.28L971.92,80.28c20.5-7.49,42.72-6.49,62.53,2.73,19.78,9.23,34.8,25.62,42.26,46.15l113.36,311.45c15.41,42.36-6.51,89.38-48.87,104.8h0l-623.1,226.79c-9.12,3.31-18.59,4.97-28.01,4.97ZM999.91,116.21c-4.73,0-9.44.82-14.01,2.49l-623.1,226.78c-10.26,3.73-18.45,11.24-23.06,21.14s-5.11,21-1.38,31.26l113.36,311.45c3.73,10.26,11.24,18.46,21.14,23.07,9.9,4.62,21,5.1,31.26,1.37l623.1-226.79c21.18-7.71,32.14-31.22,24.44-52.41l-113.36-311.45c-3.73-10.25-11.24-18.45-21.14-23.06-5.49-2.57-11.36-3.85-17.25-3.85Z"></path>
  <g class="cls-4">
    <path class="cls-1" d="M200.07,1124.7c-11.78,0-23.52-2.58-34.52-7.71-19.78-9.22-34.8-25.61-42.26-46.15L9.93,759.4c-15.41-42.36,6.51-89.38,48.87-104.8l623.1-226.78c20.5-7.49,42.72-6.53,62.53,2.73,19.78,9.22,34.8,25.61,42.26,46.15l113.36,311.45c15.41,42.36-6.51,89.38-48.87,104.8h0l-623.1,226.79c-9.12,3.31-18.59,4.97-28.01,4.97ZM709.89,463.74c-4.71,0-9.44.83-14.01,2.49L72.78,693.01c-21.18,7.72-32.14,31.23-24.44,52.42l113.36,311.45c3.73,10.26,11.24,18.46,21.14,23.07,9.88,4.62,20.98,5.1,31.26,1.37l623.1-226.79c21.18-7.72,32.14-31.22,24.44-52.41l-113.36-311.45c-3.73-10.26-11.24-18.46-21.14-23.07-5.49-2.57-11.36-3.85-17.25-3.85Z"></path>
  </g>
</svg></svg></g></g></svg>